Coordinates
nRows=205
nColumns=2
inDegrees=yes
endheader
time	ankle_angle_r	
4.18723	  9.689591	
4.24973	  9.798437	
4.31222	  9.756885	
4.37472	  9.713614	
4.43722	  9.741804	
4.49971	  9.724702	
4.56221	  9.707445	
4.6247	  9.722350	
4.6872	  9.689063	
4.7497	  9.688091	
4.81219	  9.727911	
4.87469	  9.726839	
4.93718	  9.742952	
4.99968	  9.728222	
5.06218	  9.659368	
5.12467	  9.660648	
5.18717	  9.686445	
5.24966	  9.706692	
5.31216	  9.766845	
5.37466	  9.796247	
5.43715	  9.773136	
5.49965	  9.706570	
5.56214	  9.655314	
5.62464	  9.689540	
5.68714	  9.712142	
5.74963	  9.726209	
5.81213	  9.767349	
5.87462	  9.745682	
5.93712	  9.725544	
5.99962	  9.734502	
6.06211	  9.708177	
6.12461	  9.711111	
6.1871	  9.717492	
6.2496	  9.693298	
6.3121	  9.699943	
6.37459	  9.692884	
6.43709	  9.679199	
6.49958	  9.688212	
6.56208	  9.631230	
6.62458	  9.569356	
6.68707	  9.595351	
6.74957	  9.607757	
6.81206	  9.602699	
6.87456	  9.648729	
6.93706	  9.700597	
6.99955	  9.719585	
7.06205	  9.672387	
7.12454	  9.614464	
7.18704	  9.631687	
7.24954	  9.645875	
7.31203	  9.655635	
7.37453	  9.721769	
7.43702	  9.775013	
7.49952	  9.781023	
7.56202	  9.742611	
7.62451	  9.702588	
7.68701	  9.716189	
7.7495	  9.711227	
7.812	  9.699103	
7.8745	  9.726785	
7.93699	  9.712533	
7.99949	  9.672725	
8.06198	  9.637346	
8.12448	  9.586642	
8.18698	  9.584130	
8.24947	  9.609495	
8.31197	  9.613103	
8.37446	  9.635917	
8.43696	  9.653520	
8.49946	  9.676364	
8.56195	  9.725114	
8.62445	  9.680671	
8.68694	  9.619089	
8.74944	  9.680882	
8.81194	  9.713561	
8.87443	  9.693438	
8.93693	  9.727570	
8.99942	  9.760774	
9.06192	  9.780995	
9.12442	  9.762098	
9.18691	  9.695662	
9.24941	  9.682967	
9.3119	  9.687705	
9.3744	  9.667631	
9.4369	  9.665917	
9.49939	  9.676475	
9.56189	  9.694710	
9.62438	  9.658210	
9.68688	  9.581620	
9.74938	  9.576934	
9.81187	  9.593866	
9.87437	  9.614227	
9.93686	  9.661871	
9.99936	  9.664570	
10.0619	  9.681877	
10.1244	  9.726333	
10.1868	  9.677934	
10.2493	  9.618758	
10.3118	  9.651254	
10.3743	  9.698974	
10.4368	  9.722935	
10.4993	  9.739433	
10.5618	  9.760644	
10.6243	  9.785933	
10.6868	  9.764851	
10.7493	  9.723502	
10.8118	  9.706275	
10.8743	  9.662420	
10.9368	  9.632709	
10.9993	  9.668127	
11.0618	  9.708029	
11.1243	  9.715727	
11.1868	  9.658068	
11.2493	  9.585714	
11.3118	  9.580955	
11.3743	  9.588814	
11.4368	  9.618246	
11.4993	  9.666618	
11.5618	  9.675420	
11.6243	  9.720527	
11.6868	  9.757617	
11.7492	  9.710459	
11.8117	  9.688159	
11.8742	  9.695661	
11.9367	  9.720146	
11.9992	  9.780070	
12.0617	  9.768031	
12.1242	  9.723990	
12.1867	  9.729327	
12.2492	  9.697092	
12.3117	  9.651787	
12.3742	  9.652453	
12.4367	  9.659733	
12.4992	  9.675008	
12.5617	  9.672229	
12.6242	  9.644231	
12.6867	  9.649435	
12.7492	  9.643000	
12.8117	  9.604722	
12.8742	  9.594253	
12.9367	  9.583955	
12.9992	  9.592081	
13.0617	  9.647511	
13.1242	  9.692269	
13.1867	  9.737676	
13.2492	  9.764256	
13.3116	  9.742072	
13.3741	  9.704828	
13.4366	  9.642879	
13.4991	  9.657303	
13.5616	  9.768604	
13.6241	  9.791078	
13.6866	  9.748275	
13.7491	  9.708715	
13.8116	  9.645405	
13.8741	  9.634743	
13.9366	  9.644436	
13.9991	  9.623967	
14.0616	  9.648638	
14.1241	  9.677628	
14.1866	  9.662554	
14.2491	  9.648851	
14.3116	  9.635630	
14.3741	  9.624464	
14.4366	  9.607156	
14.4991	  9.591260	
14.5616	  9.653369	
14.6241	  9.729334	
14.6866	  9.735213	
14.7491	  9.749903	
14.8116	  9.766674	
14.874	  9.745648	
14.9365	  9.719677	
14.999	  9.690316	
15.0615	  9.709466	
15.124	  9.759477	
15.1865	  9.755355	
15.249	  9.749868	
15.3115	  9.738336	
15.374	  9.673991	
15.4365	  9.628435	
15.499	  9.638082	
15.5615	  9.700057	
15.624	  9.764458	
15.6865	  9.774781	
15.749	  9.796359	
15.8115	  9.786363	
15.874	  9.680678	
15.9365	  9.636860	
15.999	  9.667900	
16.0615	  9.656673	
16.124	  9.659496	
16.1865	  9.680245	
16.249	  9.670453	
16.3115	  9.664856	
16.374	  9.642156	
16.4364	  9.614525	
16.4989	  9.620237	
16.5614	  9.607974	
16.6239	  9.613875	
16.6864	  9.671351	
16.7489	  9.700340	
16.8114	  9.719876	
16.8739	  9.728794	
16.9364	  9.643719	
